HIERARCHY
ROOT Hips
{
	OFFSET 0.000000 0.000000 0.000000 
	CHANNELS 6 Xposition Yposition Zposition Zrotation Yrotation Xrotation
	JOINT LeftUpLeg
	{
		OFFSET 1.363060 -1.794630 0.839290 
		CHANNELS 3 Zrotation Yrotation Xrotation
		JOINT LeftLeg
		{
			OFFSET 2.448110 -6.726130 0.000000 
			CHANNELS 3 Zrotation Yrotation Xrotation
			JOINT LeftFoot
			{
				OFFSET 2.562200 -7.039590 0.000000 
				CHANNELS 3 Zrotation Yrotation Xrotation
				JOINT LeftToeBase
				{
					OFFSET 0.157640 -0.433110 2.322550 
					CHANNELS 3 Zrotation Yrotation Xrotation
					End Site
					{
						OFFSET 0.000000 0.000000 0.000000 
					}
				}
			}
		}
	}
	JOINT RightUpLeg
	{
		OFFSET -1.305520 -1.794630 0.839290 
		CHANNELS 3 Zrotation Yrotation Xrotation
		JOINT RightLeg
		{
			OFFSET -2.542530 -6.985550 0.000000 
			CHANNELS 3 Zrotation Yrotation Xrotation
			JOINT RightFoot
			{
				OFFSET -2.568260 -7.056230 0.000000 
				CHANNELS 3 Zrotation Yrotation Xrotation
				JOINT RightToeBase
				{
					OFFSET -0.164730 -0.452590 2.363150 
					CHANNELS 3 Zrotation Yrotation Xrotation
					End Site
					{
						OFFSET 0.000000 0.000000 0.000000 
					}
				}
			}
		}
	}
	JOINT Spine
	{
		OFFSET 0.028270 2.035590 -0.193380 
		CHANNELS 3 Zrotation Yrotation Xrotation
		JOINT Spine1
		{
			OFFSET 0.056720 2.048850 -0.042750 
			CHANNELS 3 Zrotation Yrotation Xrotation
			JOINT Neck1
			{
				OFFSET -0.054170 1.746240 0.172020 
				CHANNELS 3 Zrotation Yrotation Xrotation
				JOINT Head
				{
					OFFSET 0.104070 1.761360 -0.123970 
					CHANNELS 3 Zrotation Yrotation Xrotation
					End Site
					{
						OFFSET 0.000000 0.000000 0.000000 
					}
				}
			}
			JOINT LeftArm
			{
				OFFSET 3.362410 1.200890 -0.311210 
				CHANNELS 3 Zrotation Yrotation Xrotation
				JOINT LeftForeArm
				{
					OFFSET 4.983000 -0.000000 -0.000000 
					CHANNELS 3 Zrotation Yrotation Xrotation
					JOINT LeftHand
					{
						OFFSET 3.483560 -0.000000 -0.000000 
						CHANNELS 3 Zrotation Yrotation Xrotation
						JOINT LeftHandIndex1
						{
							OFFSET 0.715260 -0.000000 -0.000000 
							CHANNELS 3 Zrotation Yrotation Xrotation
							End Site
							{
								OFFSET 0.000000 0.000000 0.000000 
							}
						}
					}
				}
			}
			JOINT RightArm
			{
				OFFSET -3.136600 1.374050 -0.404650 
				CHANNELS 3 Zrotation Yrotation Xrotation
				JOINT RightForeArm
				{
					OFFSET -5.241900 -0.000000 -0.000000 
					CHANNELS 3 Zrotation Yrotation Xrotation
					JOINT RightHand
					{
						OFFSET -3.444170 -0.000000 -0.000000 
						CHANNELS 3 Zrotation Yrotation Xrotation
						JOINT RightHandIndex1
						{
							OFFSET -0.622530 -0.000000 -0.000000 
							CHANNELS 3 Zrotation Yrotation Xrotation
							End Site
							{
								OFFSET 0.000000 0.000000 0.000000 
							}
						}
					}
				}
			}
		}
	}
}
MOTION
Frames: 10
Frame Time: 0.041667
-9.927533 17.579514 -15.880169 -162.229115 85.742999 -163.667438 -13.341739 -16.719355 0.516681 -1.689272 8.051345 21.044166 -0.634808 10.789934 -18.642767 3.223200 -11.047800 -32.441300 24.633153 -13.469697 10.129238 1.982496 -0.925243 3.624432 0.669093 -13.343843 -11.304713 -0.009300 0.623300 -1.712700 1.083385 0.116569 -0.608532 0.976551 -0.194412 -2.975611 1.844306 -2.333981 19.145895 0.751100 -1.453200 15.028200 -88.029298 0.447730 12.206776 29.755002 -39.455296 -11.834182 -1.096058 1.616580 -25.874408 -7.125000 0.000000 0.000000 75.894775 -5.179935 7.821600 -23.695969 34.290350 -7.604942 0.465707 -1.947642 10.504116 7.125000 0.000000 0.000000 
-9.928802 17.578929 -15.917835 -162.192465 85.853059 -163.640762 -13.375580 -16.015907 0.262323 -1.662228 8.052131 21.045930 -0.599267 10.402384 -18.210172 3.325100 -11.203500 -32.969500 24.472344 -13.361474 10.156511 1.979451 -0.913119 3.622061 0.681010 -13.420440 -11.235592 -0.015700 0.808900 -2.223200 1.091343 0.149380 -0.576202 1.018502 -0.176450 -2.945916 1.870140 -2.314192 19.056430 0.763100 -1.442300 14.965700 -87.890106 0.406122 12.515456 29.834441 -39.516894 -11.871585 -1.100473 1.613724 -25.856197 -7.125000 0.000000 0.000000 76.213117 -5.010946 7.599905 -24.006587 34.577202 -7.730173 0.471644 -1.944364 10.798438 7.125000 0.000000 0.000000 
-9.930265 17.578051 -15.955696 -161.251998 85.916330 -162.679350 -13.341806 -15.355037 -0.032747 -1.619934 8.073221 21.127605 -0.556208 9.989810 -17.827772 3.423400 -11.350700 -33.472100 24.397935 -13.223348 10.137869 1.979177 -0.908800 3.615501 0.690132 -13.484379 -11.175525 -0.022800 0.975400 -2.681200 1.113512 0.187877 -0.548812 1.050616 -0.163300 -2.907188 1.896283 -2.304636 19.001277 0.773300 -1.434700 14.928100 -87.803988 0.396359 12.841858 29.843670 -39.529594 -11.865688 -1.104568 1.612656 -25.879195 -7.125000 0.000000 0.000000 76.546628 -4.859157 7.511991 -24.235415 34.795286 -7.817645 0.476151 -1.942916 10.946604 7.125000 0.000000 0.000000 
-9.931631 17.576782 -15.994435 -159.852606 85.934300 -161.256287 -13.299757 -14.820351 -0.275940 -1.580531 8.091028 21.212416 -0.518474 9.639603 -17.524100 3.511300 -11.480100 -33.916700 24.351120 -13.097893 10.113789 1.978736 -0.908196 3.609151 0.691925 -13.494186 -11.160276 -0.024200 1.004900 -2.762300 1.141985 0.230517 -0.521993 1.069536 -0.152019 -2.865653 1.907900 -2.310146 18.975017 0.774300 -1.434400 14.909900 -87.765609 0.419491 13.228031 29.785972 -39.497268 -11.817725 -1.109620 1.612420 -25.964238 -7.125000 0.000000 0.000000 76.838780 -4.772443 7.719988 -24.391738 34.960248 -7.874697 0.481234 -1.944906 10.796595 7.125000 0.000000 0.000000 
-9.932607 17.574928 -16.034833 -158.669072 85.932623 -160.071648 -13.314768 -14.476131 -0.436398 -1.547711 8.122400 21.321151 -0.486209 9.385388 -17.354762 3.577300 -11.575600 -34.246500 24.261015 -13.021128 10.126832 1.975219 -0.905252 3.607523 0.684153 -13.426374 -11.213106 -0.016400 0.828000 -2.275700 1.165453 0.274506 -0.492428 1.071643 -0.138488 -2.829328 1.896290 -2.331693 18.967326 0.761900 -1.443500 14.901200 -87.775046 0.474644 13.680069 29.654293 -39.413598 -11.723411 -1.115691 1.612984 -26.082541 -7.125000 0.000000 0.000000 77.082773 -4.770881 8.246213 -24.485273 35.083142 -7.906846 0.487321 -1.950929 10.360103 7.125000 0.000000 0.000000 
-9.933290 17.572879 -16.076889 -158.268154 85.944656 -159.699789 -13.426012 -14.321729 -0.502556 -1.527125 8.167102 21.435115 -0.459665 9.232953 -17.321690 3.607100 -11.618400 -34.395000 24.080750 -13.005321 10.197123 1.967162 -0.895382 3.612728 0.668510 -13.289689 -11.329727 -0.005200 0.463800 -1.274400 1.174067 0.314834 -0.461017 1.055942 -0.121088 -2.806419 1.863649 -2.365271 18.972153 0.738800 -1.460400 14.895500 -87.836444 0.559684 14.161746 29.431864 -39.263913 -11.574186 -1.121392 1.615297 -26.172746 -7.125000 0.000000 0.000000 77.321615 -4.847223 8.975118 -24.526370 35.170246 -7.916694 0.493685 -1.960118 9.782619 7.125000 0.000000 0.000000 
-9.933876 17.570830 -16.119629 -158.805403 85.990223 -160.285431 -13.627062 -14.296698 -0.507154 -1.518654 8.220891 21.539532 -0.435813 9.145175 -17.384217 3.592300 -11.597200 -34.321400 23.812800 -13.035063 10.309144 1.955347 -0.878003 3.623270 0.649946 -13.125188 -11.477013 0.000000 0.018900 -0.051900 1.164312 0.345936 -0.434577 1.025349 -0.101153 -2.803366 1.823691 -2.405129 18.992244 0.713300 -1.481300 14.894200 -87.953405 0.672001 14.610601 29.099774 -39.029613 -11.362440 -1.124469 1.620768 -26.177249 -7.125000 0.000000 0.000000 77.624796 -4.977453 9.715796 -24.523752 35.224271 -7.904748 0.499221 -1.970946 9.249129 7.125000 0.000000 0.000000 
-9.935047 17.569464 -16.161588 -160.026119 86.059934 -161.542055 -13.869816 -14.320709 -0.513114 -1.517225 8.278238 21.628768 -0.410083 9.062302 -17.478262 3.532200 -11.510400 -34.021400 23.504845 -13.084001 10.416790 1.942246 -0.856634 3.635024 0.635346 -12.990811 -11.607989 -0.003100 -0.357200 0.981500 1.138461 0.362281 -0.423906 0.980261 -0.083159 -2.825646 1.795661 -2.446045 19.037061 0.696400 -1.501900 14.905900 -88.124603 0.808900 14.966573 28.645263 -38.697078 -11.085353 -1.122845 1.630449 -26.074536 -7.125000 0.000000 0.000000 78.054851 -5.138773 10.293843 -24.485430 35.247962 -7.872756 0.503387 -1.982528 8.872172 7.125000 0.000000 0.000000 
-9.937096 17.569366 -16.199644 -161.305573 86.134761 -162.815278 -14.076805 -14.300063 -0.585140 -1.513517 8.333766 21.710471 -0.377368 8.918236 -17.540028 3.438000 -11.372400 -33.546300 23.237718 -13.112828 10.472380 1.931630 -0.837515 3.642900 0.629665 -12.930628 -11.689150 -0.007300 -0.552400 1.518000 1.109043 0.367439 -0.437093 0.939306 -0.069327 -2.871446 1.797016 -2.486094 19.116270 0.697200 -1.519000 14.940500 -88.342546 0.967650 15.197441 28.067675 -38.261876 -10.747901 -1.115534 1.644489 -25.889489 -7.125000 0.000000 0.000000 78.638934 -5.321297 10.627302 -24.420958 35.249873 -7.827501 0.506977 -1.995511 8.624169 7.125000 0.000000 0.000000 
-9.940414 17.570830 -16.232236 -162.038216 86.189768 -163.471909 -14.186145 -14.203128 -0.763953 -1.501371 8.383977 21.794724 -0.337780 8.694304 -17.540431 3.324600 -11.202900 -32.967200 23.081430 -13.091303 10.429847 1.926075 -0.826516 3.642658 0.634215 -12.959759 -11.704592 -0.006800 -0.532500 1.463200 1.087202 0.366097 -0.479788 0.909354 -0.061986 -2.938843 1.834816 -2.524795 19.231223 0.719000 -1.531700 15.002600 -88.596521 1.145400 15.307089 27.378953 -37.730300 -10.361284 -1.102950 1.661986 -25.677413 -7.125000 0.000000 0.000000 79.357309 -5.526855 10.750005 -24.336982 35.240435 -7.779101 0.511720 -2.012324 8.356119 7.125000 0.000000 0.000000 
